<?xml version="1.0" encoding="UTF-8" standalone="no"?>
<!DOCTYPE svg PUBLIC "-//W3C//DTD SVG 1.0//EN" "http://www.w3.org/TR/2001/REC-SVG-20010904/DTD/svg10.dtd">
<!-- Created with Inkscape (http://www.inkscape.org/) -->
<svg xmlns:svg="http://www.w3.org/2000/svg" xmlns="http://www.w3.org/2000/svg" version="1.0" width="800" height="430" id="svg2">
  <defs id="defs4"/>
  <g id="layer1">
    <path d="M 4.061465,5.8168721 L 128.35461,212.30026 L 4.061465,423.93453 L 156.12461,423.93453 L 201.81074,344.20776 L 247.27292,423.93453 L 399.33606,423.93453 L 533.70703,327.63534 L 591.93445,423.93453 L 794.61069,423.93453 L 794.61069,107.26695 L 662.92711,199.75897 L 662.92711,290.90727 L 624.40743,226.85711 L 436.73598,358.76461 L 464.50598,313.07848 L 612.76195,207.37332 L 608.28291,199.75897 L 472.12033,295.38631 L 500.11429,249.70018 L 596.86138,180.72308 L 592.38235,173.33268 L 504.59332,235.14332 L 532.36332,189.68114 L 581.18477,154.74469 L 491.82808,5.8168721 L 323.41646,290.90727 L 277.73033,212.30026 L 399.33606,5.8168721 L 248.61663,5.8168721 L 200.46703,79.273 L 154.7809,5.8168721 L 4.061465,5.8168721 z M 662.92711,5.8168721 L 662.92711,96.293323 L 789.23585,5.8168721 L 662.92711,5.8168721 z M 794.61069,31.347356 L 662.92711,123.83937 L 662.92711,133.24534 L 794.61069,39.185662 L 794.61069,31.347356 z M 794.61069,68.747274 L 662.92711,161.46324 L 662.92711,171.54106 L 794.61069,77.705339 L 794.61069,68.747274 z" id="path3212" style="fill:#0096e1;fill-opacity:1;fill-rule:evenodd;stroke:none;stroke-width:1px;stroke-linecap:butt;stroke-linejoin:miter;stroke-opacity:1"/>
  </g>
</svg>